<svg xmlns="http://www.w3.org/2000/svg" width="56" height="56" viewBox="0 0 56 56"><path d="M 4.02 41.72 L 4.09 42.44 L 4.21 43.15 L 4.37 43.85 L 4.58 44.54 L 4.84 45.21 L 5.13 45.87 L 5.47 46.50 L 5.85 47.11 L 6.27 47.70 L 6.73 48.25 L 7.22 48.78 L 7.75 49.27 L 8.30 49.73 L 8.89 50.15 L 9.50 50.53 L 10.13 50.87 L 10.79 51.16 L 11.46 51.42 L 12.15 51.63 L 12.85 51.79 L 13.56 51.91 L 14.28 51.98 L 15.00 52.00 L 41.00 52.00 L 41.72 51.98 L 42.44 51.91 L 43.15 51.79 L 43.85 51.63 L 44.54 51.42 L 45.21 51.16 L 45.87 50.87 L 46.50 50.53 L 47.11 50.15 L 47.70 49.73 L 48.25 49.27 L 48.78 48.78 L 49.27 48.25 L 49.73 47.70 L 50.15 47.11 L 50.53 46.50 L 50.87 45.87 L 51.16 45.21 L 51.42 44.54 L 51.63 43.85 L 51.79 43.15 L 51.91 42.44 L 51.98 41.72 L 52.00 41.00 L 52.00 15.00 L 51.98 14.28 L 51.91 13.56 L 51.79 12.85 L 51.63 12.15 L 51.42 11.46 L 51.16 10.79 L 50.87 10.13 L 50.53 9.50 L 50.15 8.89 L 49.73 8.30 L 49.27 7.75 L 48.78 7.22 L 48.25 6.73 L 47.70 6.27 L 47.11 5.85 L 46.50 5.47 L 45.87 5.13 L 45.21 4.84 L 44.54 4.58 L 43.85 4.37 L 43.15 4.21 L 42.44 4.09 L 41.72 4.02 L 41.00 4.00 L 15.00 4.00 L 14.28 4.02 L 13.56 4.09 L 12.85 4.21 L 12.15 4.37 L 11.46 4.58 L 10.79 4.84 L 10.13 5.13 L 9.50 5.47 L 8.89 5.85 L 8.30 6.27 L 7.75 6.73 L 7.22 7.22 L 6.73 7.75 L 6.27 8.30 L 5.85 8.89 L 5.47 9.50 L 5.13 10.13 L 4.84 10.79 L 4.58 11.46 L 4.37 12.15 L 4.21 12.85 L 4.09 13.56 L 4.02 14.28 L 4.00 15.00 L 4.00 41.00 L 4.02 41.72 Z M 37.65 25.37 L 37.91 25.57 L 38.60 26.17 L 38.83 26.40 L 39.43 27.09 L 39.63 27.35 L 40.14 28.11 L 40.30 28.39 L 40.71 29.22 L 40.83 29.52 L 41.13 30.38 L 41.21 30.70 L 41.39 31.60 L 41.43 31.92 L 41.49 32.84 L 41.49 33.16 L 41.43 34.08 L 41.39 34.40 L 41.21 35.30 L 41.13 35.62 L 40.83 36.48 L 40.71 36.78 L 40.30 37.61 L 40.14 37.89 L 39.63 38.65 L 39.43 38.91 L 38.83 39.60 L 38.60 39.83 L 37.91 40.43 L 37.65 40.63 L 36.89 41.14 L 36.61 41.30 L 35.78 41.71 L 35.48 41.83 L 34.62 42.13 L 34.30 42.21 L 33.40 42.39 L 33.08 42.43 L 32.16 42.49 L 32.00 42.50 L 20.00 42.50 L 19.75 42.49 L 19.51 42.45 L 19.27 42.39 L 19.04 42.31 L 18.82 42.20 L 18.61 42.08 L 18.41 41.93 L 18.23 41.77 L 18.07 41.59 L 17.92 41.39 L 17.80 41.18 L 17.69 40.96 L 17.61 40.73 L 17.55 40.49 L 17.51 40.25 L 17.50 40.00 L 17.50 26.00 L 17.50 12.00 L 17.51 11.75 L 17.55 11.51 L 17.61 11.27 L 17.69 11.04 L 17.80 10.82 L 17.92 10.61 L 18.07 10.41 L 18.23 10.23 L 18.41 10.07 L 18.61 9.92 L 18.82 9.80 L 19.04 9.69 L 19.27 9.61 L 19.51 9.55 L 19.75 9.51 L 20.00 9.50 L 30.00 9.50 L 30.16 9.51 L 31.08 9.57 L 31.40 9.61 L 32.30 9.79 L 32.62 9.87 L 33.48 10.17 L 33.78 10.29 L 34.61 10.70 L 34.89 10.86 L 35.65 11.37 L 35.91 11.57 L 36.60 12.17 L 36.83 12.40 L 37.43 13.09 L 37.63 13.35 L 38.14 14.11 L 38.30 14.39 L 38.71 15.22 L 38.83 15.52 L 39.13 16.38 L 39.21 16.70 L 39.39 17.60 L 39.43 17.92 L 39.49 18.84 L 39.49 19.16 L 39.43 20.08 L 39.39 20.40 L 39.21 21.30 L 39.13 21.62 L 38.83 22.48 L 38.71 22.78 L 38.30 23.61 L 38.14 23.89 L 37.63 24.65 L 37.43 24.91 L 37.26 25.11 L 37.65 25.37 Z M 12.90 44.97 L 12.72 44.85 L 12.54 44.71 L 12.38 44.56 L 12.24 44.40 L 12.11 44.22 L 12.00 44.03 L 11.91 43.82 L 11.84 43.62 L 11.79 43.40 L 11.76 43.18 L 11.75 42.96 L 11.77 42.74 L 11.80 42.52 L 11.86 42.31 L 11.94 42.10 L 12.03 41.90 L 12.15 41.72 L 12.29 41.54 L 12.44 41.38 L 12.60 41.24 L 12.78 41.11 L 12.97 41.00 L 13.18 40.91 L 13.38 40.84 L 13.60 40.79 L 13.82 40.76 L 14.04 40.75 L 14.26 40.77 L 14.48 40.80 L 14.69 40.86 L 14.90 40.94 L 15.10 41.03 L 15.77 41.41 L 16.43 41.76 L 17.08 42.09 L 17.74 42.39 L 18.39 42.68 L 19.04 42.95 L 19.68 43.20 L 20.33 43.43 L 20.97 43.64 L 21.62 43.84 L 22.26 44.01 L 22.90 44.17 L 23.54 44.30 L 24.18 44.42 L 24.82 44.52 L 25.46 44.60 L 26.09 44.67 L 26.73 44.71 L 27.36 44.74 L 28.00 44.75 L 28.64 44.74 L 29.27 44.71 L 29.91 44.67 L 30.54 44.60 L 31.18 44.52 L 31.82 44.42 L 32.46 44.30 L 33.10 44.17 L 33.74 44.01 L 34.38 43.84 L 35.03 43.64 L 35.67 43.43 L 36.32 43.20 L 36.96 42.95 L 37.61 42.68 L 38.26 42.39 L 38.92 42.09 L 39.57 41.76 L 40.23 41.41 L 40.90 41.03 L 41.10 40.94 L 41.31 40.86 L 41.52 40.80 L 41.74 40.77 L 41.96 40.75 L 42.18 40.76 L 42.40 40.79 L 42.62 40.84 L 42.82 40.91 L 43.03 41.00 L 43.22 41.11 L 43.40 41.24 L 43.56 41.38 L 43.71 41.54 L 43.85 41.72 L 43.97 41.90 L 44.06 42.10 L 44.14 42.31 L 44.20 42.52 L 44.23 42.74 L 44.25 42.96 L 44.24 43.18 L 44.21 43.40 L 44.16 43.62 L 44.09 43.82 L 44.00 44.03 L 43.89 44.22 L 43.76 44.40 L 43.62 44.56 L 43.46 44.71 L 43.28 44.85 L 43.10 44.97 L 42.40 45.36 L 42.35 45.38 L 41.65 45.75 L 41.61 45.77 L 40.91 46.12 L 40.86 46.15 L 40.16 46.48 L 40.11 46.50 L 39.41 46.81 L 39.36 46.83 L 38.66 47.12 L 38.61 47.14 L 37.91 47.41 L 37.86 47.43 L 37.16 47.68 L 37.10 47.70 L 36.40 47.93 L 36.35 47.95 L 35.65 48.16 L 35.59 48.17 L 34.89 48.36 L 34.83 48.38 L 34.13 48.55 L 34.07 48.56 L 33.37 48.71 L 33.31 48.72 L 32.61 48.85 L 32.55 48.86 L 31.85 48.97 L 31.79 48.98 L 31.09 49.07 L 31.02 49.08 L 30.32 49.15 L 30.26 49.15 L 29.56 49.20 L 29.50 49.21 L 28.80 49.24 L 28.73 49.24 L 28.03 49.25 L 27.97 49.25 L 27.27 49.24 L 27.20 49.24 L 26.50 49.21 L 26.44 49.20 L 25.74 49.15 L 25.68 49.15 L 24.98 49.08 L 24.91 49.07 L 24.21 48.98 L 24.15 48.97 L 23.45 48.86 L 23.39 48.85 L 22.69 48.72 L 22.63 48.71 L 21.93 48.56 L 21.87 48.55 L 21.17 48.38 L 21.11 48.36 L 20.41 48.17 L 20.35 48.16 L 19.65 47.95 L 19.60 47.93 L 18.90 47.70 L 18.84 47.68 L 18.14 47.43 L 18.09 47.41 L 17.39 47.14 L 17.34 47.12 L 16.64 46.83 L 16.59 46.81 L 15.89 46.50 L 15.84 46.48 L 15.14 46.15 L 15.09 46.12 L 14.39 45.77 L 14.35 45.75 L 13.65 45.38 L 13.60 45.36 L 12.90 44.97 Z M 22.50 14.50 L 22.50 23.50 L 29.92 23.50 L 30.59 23.46 L 31.16 23.34 L 31.72 23.15 L 32.25 22.89 L 32.74 22.57 L 33.18 22.18 L 33.57 21.74 L 33.89 21.25 L 34.15 20.72 L 34.34 20.16 L 34.46 19.59 L 34.49 19.00 L 34.46 18.41 L 34.34 17.84 L 34.15 17.28 L 33.89 16.75 L 33.57 16.26 L 33.18 15.82 L 32.74 15.43 L 32.25 15.11 L 31.72 14.85 L 31.16 14.66 L 30.59 14.54 L 29.92 14.50 L 22.50 14.50 Z M 22.50 37.50 L 31.92 37.50 L 32.59 37.46 L 33.16 37.34 L 33.72 37.15 L 34.25 36.89 L 34.74 36.57 L 35.18 36.18 L 35.57 35.74 L 35.89 35.25 L 36.15 34.72 L 36.34 34.16 L 36.46 33.59 L 36.49 33.00 L 36.46 32.41 L 36.34 31.84 L 36.15 31.28 L 35.89 30.75 L 35.57 30.26 L 35.18 29.82 L 34.74 29.43 L 34.25 29.11 L 33.72 28.85 L 33.16 28.66 L 32.59 28.54 L 31.92 28.50 L 30.00 28.50 L 22.50 28.50 L 22.50 37.50 Z" fill="#000000" fill-rule="evenodd"></path></svg>